<svg xmlns="http://www.w3.org/2000/svg" aria-hidden="true" style="position:absolute;width:0;height:0;overflow:hidden">
  <defs>
    <symbol id="icon-go-back-arrow" viewBox="0 0 32 32">
      <path stroke-linecap="round" stroke-linejoin="round" stroke-width="1.28" d="M21.76 16.004H10.24m0 0 5.168 5.17m-5.168-5.17 5.168-5.17"/>
    </symbol>
    <symbol id="icon-delete-bin" viewBox="0 0 32 32">
      <path stroke-linecap="round" stroke-linejoin="round" stroke-width="1.333" d="M16 21.846v-8.769M6.5 9.423h2.192m16.808 0h-2.192m-3.654 0h-7.308m7.308 0V7.961c0-.807-.654-1.462-1.462-1.462h-4.385c-.807 0-1.462.654-1.462 1.462v1.462m7.309 0h3.654m-10.962 0H8.692m14.616 0v13.154a2.923 2.923 0 0 1-2.923 2.923h-8.769a2.923 2.923 0 0 1-2.923-2.923V9.423"/>
    </symbol>
    <symbol id="icon-Media-camera" viewBox="0 0 32 32">
      <path d="M19.654 17.462a3.654 3.654 0 1 1-7.308 0 3.654 3.654 0 0 1 7.308 0z"/>
      <path d="M6.5 22.5v-8.906a2.71 2.71 0 0 1 2.71-2.71 2.71 2.71 0 0 0 2.424-1.498l.614-1.228A3 3 0 0 1 14.931 6.5h2.138a3 3 0 0 1 2.683 1.658l.614 1.228a2.71 2.71 0 0 0 2.424 1.498 2.71 2.71 0 0 1 2.71 2.71V22.5a3 3 0 0 1-3 3h-13a3 3 0 0 1-3-3z"/>
    </symbol>
    <symbol id="icon-log-out" viewBox="0 0 32 32">
      <path stroke-linecap="round" stroke-linejoin="round" stroke-width="1.143" d="M13.495 5.571h-3.132a2.505 2.505 0 0 0-2.505 2.505v11.275a2.506 2.506 0 0 0 2.505 2.506h3.132m-1.352-8.143H24.67m0 0-3.758 3.758m3.758-3.758-3.758-3.758"/>
    </symbol>
    <symbol id="icon-close" viewBox="0 0 32 32">
      <path stroke-linecap="round" stroke-linejoin="round" stroke-width="1.28" d="M7.36 7.36 16 16m0 0-8.64 8.64M16 16l8.64 8.64M16 16l8.64-8.64"/>
    </symbol>
    <symbol id="icon-save-to-fav" viewBox="0 0 32 32">
      <path stroke-width=".8" d="M12.8.4h6.4c3.028 0 5.26.001 6.97.23 1.698.228 2.823.676 3.673 1.527s1.298 1.975 1.527 3.673c.23 1.71.23 3.941.23 6.97v6.4c0 3.028-.001 5.26-.23 6.97-.228 1.698-.676 2.823-1.527 3.673s-1.975 1.298-3.673 1.527c-1.71.23-3.941.23-6.97.23h-6.4c-3.028 0-5.26-.001-6.97-.23-1.698-.228-2.823-.676-3.673-1.527S.859 27.868.63 26.17C.4 24.46.4 22.229.4 19.2v-6.4c0-3.028.001-5.26.23-6.97.228-1.698.676-2.823 1.527-3.673S4.132.859 5.83.63C7.54.4 9.771.4 12.8.4z"/>
      <path stroke-linecap="round" stroke-linejoin="round" stroke-width=".8" d="M15.998 9.2c1.011 0 1.939.097 2.674.209.931.142 1.661.78 1.869 1.671.251 1.076.497 2.713.455 4.912-.047 2.426-.401 4.177-.742 5.32-.092.309-.306.468-.548.509-.253.043-.564-.041-.818-.294a17.97 17.97 0 0 0-1.477-1.339 5.653 5.653 0 0 0-.71-.487c-.212-.118-.46-.224-.702-.224-.238 0-.495.105-.72.22a6.805 6.805 0 0 0-.775.483c-.543.383-1.144.88-1.673 1.34-.279.243-.609.3-.868.23-.25-.068-.462-.26-.527-.595-.223-1.15-.435-2.85-.435-5.154 0-2.299.237-3.92.473-4.964.195-.865.901-1.481 1.809-1.621a17.933 17.933 0 0 1 2.716-.215z"/>
    </symbol>
    <symbol id="icon-time-clock" viewBox="0 0 32 32">
      <path stroke-linecap="round" stroke-linejoin="round" stroke-width=".667" d="M16 10.154v6.577l4.385 3.654M25.5 16c0 5.247-4.253 9.5-9.5 9.5S6.5 21.247 6.5 16s4.253-9.5 9.5-9.5 9.5 4.253 9.5 9.5z"/>
    </symbol>
    <symbol id="icon-filter" viewBox="0 0 32 32">
      <path stroke-width="1.28" d="M9.192 7.84h13.616a1.832 1.832 0 0 1 1.332 3.09l-6.146 6.511v4.507a1.994 1.994 0 1 1-3.988 0v-4.507L7.86 10.93a1.832 1.832 0 0 1 1.332-3.09z"/>
    </symbol>
    <symbol id="icon-password-hide" viewBox="0 0 32 32">
      <path stroke-linecap="round" stroke-width="1.28" d="M19.086 22.384c-1.042.484-2.2.799-3.418.799-4.588 0-8.308-4.469-8.308-5.604 0-.644 1.195-2.358 3.066-3.723m12.553 5.519c.636-.765.997-1.442.997-1.796 0-1.135-3.719-5.604-8.308-5.604 2.019 0 3.655 1.623 3.655 3.626m-3.655 3.626c-2.019 0-3.655-1.623-3.655-3.626m12.627-3.626C22.11 9.881 19.156 8.679 16 8.679c-1.137 0-2.248.156-3.323.454M7.36 11.975c.235-.194.473-.381.714-.559M7.36 7.36l16.046 16.2"/>
    </symbol>
    <symbol id="icon-password-show" viewBox="0 0 32 32">
<path stroke-linejoin="miter" stroke-linecap="round" stroke-miterlimit="4" stroke-width="1" d="M15.654 11.909c-4.779 0-8.654 4.621-8.654 5.795s3.874 5.796 8.654 5.796c4.779 0 8.654-4.621 8.654-5.796s-3.875-5.795-8.654-5.795zM15.654 11.909c-2.103 0-3.808 1.679-3.808 3.75s1.705 3.75 3.808 3.75 3.808-1.679 3.808-3.75c0-2.071-1.705-3.75-3.808-3.75zM25 11.909c-2.636-2.166-5.713-3.409-9-3.409s-6.364 1.243-9 3.409"></path>
</symbol>
    <symbol id="icon-burger-menu" viewBox="0 0 32 32">
      <path stroke-linecap="round" stroke-width="1.293" d="M7.758 9.536h16.485M7.758 21.172h16.485M7.758 15.354h16.485"/>
    </symbol>
    <symbol id="icon-cook-book" viewBox="0 0 32 32">
      <path d="M13.802 6.901c.312-.033.635.001.938.076.899.225 1.509.777 1.972 1.548.368-.039.74-.016 1.101.067a3.04 3.04 0 0 1 1.849 1.336 2.83 2.83 0 0 1 .344 2.219c-.257.972-.875 1.479-1.715 1.964.023.597.015 1.197.016 1.794.001.377.025.771-.012 1.146a.951.951 0 0 1-.13.426.782.782 0 0 1-.391.13c-.385.046-.803.015-1.191.014l-2.288-.008c-.814.06-1.675.003-2.494.004-.545 0-1.158.064-1.696.004-.192-.022-.274-.148-.379-.289-.068-1.072-.01-2.179-.01-3.254-.448-.229-.829-.51-1.142-.905a2.777 2.777 0 0 1-.581-2.099c.117-.788.544-1.5 1.189-1.98a2.932 2.932 0 0 1 2.179-.555c.109-.19.219-.38.355-.553.524-.667 1.254-.979 2.084-1.083zm.044 1.316c-.51.1-.95.283-1.258.724-.172.247-.33.958-.545 1.066-.284.034-.582-.097-.858-.157-.553-.12-1.179.099-1.522.544-.282.366-.415.87-.339 1.324.068.411.319.755.663.99.375.257.793.308 1.052.711.048.934.013 1.884.015 2.82 1.09-.008 2.18-.011 3.27-.007l2.662-.005c0-.474-.103-2.834.119-3.065.104-.109.342-.175.483-.23.634-.247 1.098-.674 1.156-1.378a1.592 1.592 0 0 0-.426-1.229 1.538 1.538 0 0 0-1.083-.508c-.375-.022-1.148.332-1.384.068-.115-.128-.161-.349-.219-.51-.24-.664-.742-1.049-1.448-1.141a2.134 2.134 0 0 0-.339-.018zM26.377 2.787c.236-.017.519-.014.706.156.174.158.182.412.124.623-.14.512-.589 1.125-.86 1.591-.433.745-.836 1.511-1.257 2.264-.26.466-.574.943-.782 1.431a1.132 1.132 0 0 0-.109.488.462.462 0 0 0 .172.356c.161.137.373.244.592.215a.535.535 0 0 0 .352-.207c.308-.383.491-.916.716-1.349l1.552-2.995c.183-.358.345-.798.603-1.107.136-.164.263-.242.48-.26a.642.642 0 0 1 .472.141c.157.132.23.345.199.545-.06.385-.402.852-.585 1.203l-1.409 2.763c-.251.498-.546 1.008-.749 1.527-.047.121-.094.256-.076.387.02.154.134.288.259.376.139.097.328.162.499.124.197-.043.334-.185.444-.343.251-.359.416-.83.601-1.227l1.203-2.549c.227-.484.433-1.052.735-1.492.109-.158.226-.284.426-.315.203-.031.408.054.561.181.127.106.222.229.228.398.015.433-.781 1.938-.997 2.422l-.852 1.905c-.419.939-.776 1.881-1.481 2.658-.695.765-1.486 1.09-2.44 1.431-.201.072-.51.143-.681.265-.337.241-.572.687-.77 1.039-.152.27-.346.564-.441.859-.14.435-.047 1.766-.047 2.291l-.001 6.784.004 2.074c.001.406.025.831-.02 1.235a.704.704 0 0 1-.185.419c-.33.321-1.548.207-2.015.205l-3.186-.004a13.3 13.3 0 0 1 .65-1.429c.413-.043.838-.024 1.254-.025l2.055.001v-8.866c-.266.63-.605 1.247-.911 1.86a341.106 341.106 0 0 0-1.617 3.265 297.95 297.95 0 0 1-1.961 3.968c-.278.551-.524 1.131-.84 1.661a1.599 1.599 0 0 1-.497.547 1.345 1.345 0 0 1-.984.185 1.221 1.221 0 0 1-.8-.56 1.15 1.15 0 0 1-.131-.962c.164-.544.509-1.07.781-1.568l1.295-2.371c1.569-2.872 3.151-5.743 4.669-8.642.358-.683 1.168-1.978 1.363-2.622.213-.7-.234-1.539-.364-2.228a4.075 4.075 0 0 1 .339-2.585c.207-.408.457-.799.688-1.194l1.197-2.066.966-1.675c.191-.33.372-.686.603-.99a.83.83 0 0 1 .264-.213z"/>
      <path d="M4.658 1.545c1.108-.058 2.24-.008 3.351-.007l12.141-.001c.937 0 1.91-.054 2.844.006.191.012.408.065.552.197.127.116.181.319.205.481.049.328.02.688.02 1.021l-.008 1.887c-.462.743-.969 1.466-1.454 2.195.043-.489.013-.998.013-1.49V3.068c-5.538.005-11.083.055-16.62-.003-.056 2.265-.005 4.545-.005 6.812l.003 12.53 9.775-.007c.428-.001.883-.031 1.307.023-.157.488-.457.977-.689 1.436l-10.01-.017c-.528.001-1.078-.024-1.601.053-.45.063-.874.247-1.227.53-.431.344-.744.842-.789 1.394-.04.486.153.956.469 1.323.297.344.753.605 1.203.69.658.124 1.635.036 2.328.038l4.707.004c.875.001 1.767-.036 2.639.028-.155.453-.296.943-.385 1.413-.79-.07-1.63-.013-2.426-.013l-4.714-.001c-.82.002-1.754.096-2.555-.075-.562-.12-1.09-.413-1.529-.774-.709-.582-1.155-1.479-1.228-2.381-.04-.504-.011-1.027-.009-1.534l.001-2.456v-8.494l-.002-5.89c-.001-.758-.071-2.09.032-2.805a3.661 3.661 0 0 1 .876-1.917 4.123 4.123 0 0 1 2.784-1.428zM4.219 3.13c-.78.316-1.352.712-1.684 1.504-.115.273-.145.609-.155.903-.049 1.441-.004 2.9-.003 4.344l.001 8.333.001 3.694c0 .419-.078.989.015 1.388l.033.011.052-.033c.588-.434 1.086-.672 1.808-.823-.056-2.059-.007-4.134-.005-6.195.003-2.316-.038-4.637-.012-6.952.015-1.515.018-3.03.01-4.545 0-.365.06-1.315-.011-1.615l-.05-.015z"/>
    </symbol>
    <symbol id="icon-save-favorite" viewBox="0 0 26 32">
<path fill="none" stroke="#fff" style="stroke: var(--color1, #fff)" stroke-linejoin="round" stroke-linecap="round" stroke-miterlimit="4" stroke-width="1.8824" d="M13.171 0.941c2.379 0 4.563 0.226 6.293 0.489 2.191 0.335 3.908 1.835 4.397 3.934 0.589 2.532 1.167 6.383 1.069 11.558-0.109 5.709-0.941 9.83-1.747 12.518-0.216 0.727-0.719 1.099-1.288 1.195-0.595 0.102-1.329-0.096-1.926-0.691-1.084-1.080-2.328-2.248-3.475-3.151-0.49-0.398-1.036-0.776-1.61-1.111l-0.062-0.033c-0.499-0.277-1.082-0.527-1.653-0.527-0.561 0-1.165 0.245-1.694 0.518-0.561 0.29-1.186 0.685-1.822 1.137-1.278 0.902-2.692 2.071-3.938 3.151-0.659 0.572-1.431 0.708-2.042 0.54-0.589-0.16-1.086-0.612-1.239-1.4-0.527-2.707-1.024-6.705-1.024-12.126 0-5.408 0.557-9.224 1.111-11.68 0.463-2.035 2.123-3.484 4.26-3.814 1.915-0.315 4.127-0.499 6.381-0.506l0.008-0z"></path>
</symbol>
 <symbol id="icon-flag" viewBox="0 0 28 32">
            <path stroke-linejoin="round" stroke-linecap="round" stroke-miterlimit="4" stroke-width="1.8824"
                d="M14.112 0.941c2.379 0 4.562 0.228 6.292 0.491 2.191 0.333 3.908 1.834 4.397 3.932 0.59 2.532 1.169 6.385 1.070 11.559-0.11 5.709-0.943 9.829-1.746 12.516-0.217 0.727-0.72 1.101-1.289 1.197-0.594 0.1-1.328-0.098-1.925-0.691-1.086-1.081-2.329-2.248-3.476-3.151-0.572-0.45-1.142-0.852-1.671-1.145-0.499-0.277-1.083-0.528-1.653-0.528-0.56 0-1.165 0.247-1.693 0.518-0.563 0.289-1.186 0.686-1.824 1.136-1.277 0.902-2.692 2.070-3.938 3.153-0.658 0.571-1.432 0.706-2.042 0.54-0.589-0.16-1.086-0.613-1.239-1.401-0.525-2.707-1.024-6.705-1.024-12.127 0-5.409 0.557-9.224 1.112-11.68 0.46-2.035 2.12-3.485 4.255-3.814 1.746-0.27 3.967-0.505 6.392-0.505z">
            </path>
        </symbol>


<symbol id="icon-pagination-forwards" viewBox="0 0 32 32">
<path stroke-linejoin="round" stroke-linecap="round" stroke-miterlimit="4" stroke-width="1.3333" d="M6 16.004l19.996-0.004M25.996 16l-5.383-5.387M25.996 16l-5.383 5.387"></path>
</symbol>


<symbol id="icon-pagination-backwards" viewBox="0 0 32 32">
<path stroke-linejoin="round" stroke-linecap="round" stroke-miterlimit="4" stroke-width="1.3333" d="M25.997 16l-19.996 0.004M6.001 16.004l5.384 5.385M6 16.003l5.384-5.384"></path>
</symbol>


<symbol id="icon-arrow-down" viewBox="0 0 64 32">
<path stroke-linejoin="round" stroke-linecap="round" stroke-miterlimit="4" stroke-width="4" d="M59 2.5l-27 27-27-27"></path>
</symbol>



  </defs>
</svg>
